<?xml version="1.0" standalone="no"?>
<!DOCTYPE svg PUBLIC "-//W3C//DTD SVG 20010904//EN"
 "http://www.w3.org/TR/2001/REC-SVG-20010904/DTD/svg10.dtd">
<svg version="1.0" xmlns="http://www.w3.org/2000/svg"
 width="1278.000000pt" height="1280.000000pt" viewBox="0 0 1278.000000 1280.000000"
 preserveAspectRatio="xMidYMid meet">
<metadata>
Created by potrace 1.15, written by Peter Selinger 2001-2017
</metadata>
<g transform="translate(0.000000,1280.000000) scale(0.100000,-0.100000)"
fill="#000000" stroke="none">
<path d="M5910 12790 c-183 -23 -336 -82 -429 -166 -94 -85 -163 -231 -197
-419 -22 -124 -25 -487 -5 -734 7 -89 14 -213 14 -275 1 -97 -1 -116 -21 -153
-35 -67 -83 -88 -303 -134 -226 -47 -235 -50 -586 -212 -278 -128 -473 -210
-529 -222 -31 -6 -36 -1 -215 207 -221 257 -415 457 -527 545 -322 253 -583
271 -867 59 -105 -79 -171 -143 -339 -325 -83 -91 -190 -207 -237 -258 -134
-143 -209 -258 -254 -388 -23 -66 -31 -200 -16 -278 15 -76 94 -241 154 -320
64 -83 218 -256 285 -318 31 -29 140 -134 241 -233 172 -168 183 -181 170
-200 -87 -137 -216 -364 -283 -501 -124 -252 -193 -431 -300 -775 -32 -103
-52 -153 -70 -169 -37 -35 -130 -41 -456 -29 -432 15 -616 1 -763 -57 -199
-80 -309 -238 -359 -515 -21 -119 -17 -833 6 -964 54 -315 197 -502 447 -581
168 -53 254 -59 744 -57 l450 3 48 -153 c70 -222 145 -406 258 -633 109 -221
191 -358 291 -484 36 -45 68 -93 70 -106 8 -42 -19 -83 -124 -183 -659 -629
-716 -689 -801 -857 -85 -169 -80 -346 15 -514 77 -138 239 -331 454 -544 174
-171 283 -263 414 -352 217 -146 390 -161 605 -55 157 78 286 192 555 491 162
179 506 541 520 547 4 1 69 -29 146 -67 289 -144 652 -277 984 -361 90 -23
177 -48 192 -56 32 -17 34 -34 18 -174 -10 -95 -32 -734 -32 -990 -1 -192 18
-326 63 -438 86 -217 233 -319 534 -369 214 -35 950 -15 1127 32 268 70 419
276 479 655 19 116 17 480 -4 755 -41 536 -41 524 -26 541 17 21 34 27 229 84
312 91 551 185 857 336 l212 105 39 -43 c21 -24 63 -70 93 -104 238 -268 533
-585 616 -664 232 -220 428 -320 629 -320 149 0 286 55 422 168 262 220 623
578 710 704 92 134 152 289 152 393 0 64 -31 174 -74 260 -85 171 -203 304
-550 614 -121 108 -254 225 -295 261 -168 143 -168 148 -25 386 166 278 329
628 424 913 40 121 51 142 100 184 68 58 136 72 335 71 94 -1 244 -8 335 -17
275 -27 377 -30 500 -17 302 32 472 150 545 380 69 221 96 831 50 1150 -30
212 -86 366 -160 449 -85 94 -234 163 -420 196 -118 21 -443 24 -671 5 -78 -6
-199 -12 -270 -13 -219 -3 -257 29 -313 270 -57 243 -85 318 -193 515 -140
255 -212 401 -239 483 -26 80 -31 180 -10 218 7 14 93 97 190 184 435 391 610
609 666 828 19 76 19 224 0 300 -20 78 -93 225 -150 300 -45 60 -274 311 -460
503 -233 242 -417 346 -606 344 -99 -2 -154 -15 -254 -62 -177 -83 -375 -258
-660 -585 -242 -278 -285 -318 -360 -335 -59 -13 -120 8 -258 92 -192 117
-245 141 -433 198 -362 110 -432 133 -509 170 -100 47 -159 90 -181 131 -14
29 -15 49 -5 188 37 526 38 692 6 891 -48 295 -161 472 -368 576 -108 55 -204
73 -442 84 -334 16 -664 20 -745 10z m691 -4636 c438 -54 861 -265 1120 -559
236 -267 364 -584 389 -960 62 -938 -518 -1632 -1490 -1782 -153 -23 -472 -23
-619 0 -214 34 -397 90 -571 173 -205 98 -347 200 -497 357 -276 289 -423 678
-423 1122 0 707 377 1265 1030 1524 329 130 683 172 1061 125z"/>
</g>
</svg>
